<?xml version="1.0" encoding="UTF-8" standalone="no" ?>
<!DOCTYPE svg PUBLIC "-//W3C//DTD SVG 1.1//EN" "http://www.w3.org/Graphics/SVG/1.1/DTD/svg11.dtd">
<svg xmlns="http://www.w3.org/2000/svg" xmlns:xlink="http://www.w3.org/1999/xlink" version="1.1" width="400" height="400" viewBox="0 0 400 400" xml:space="preserve">
<desc>Created with Fabric.js 3.6.2</desc>
<defs>
</defs>
<g transform="matrix(0.4 0 0 0.4 220.5 227.44)" id="图层_1"  >
<path style="stroke: none; stroke-width: 1; stroke-dasharray: none; stroke-linecap: butt; stroke-dashoffset: 0; stroke-linejoin: miter; stroke-miterlimit: 4; fill: rgb(255,255,255); fill-rule: nonzero; opacity: 1;"  transform=" translate(-301.25, -318.6)" d="M 394.67 337.33 c 0.49 14.52 -8.42 28.24 -22.28 33.07 c -6.06 2.11 -12.13 1.91 -18.41 1.91 H 263.5 c -4.59 0 -9.19 0.05 -13.79 0 a 41.85 41.85 0 0 1 -34.3 -65.91 c 10.53 -15.33 30 -21 47.46 -15.64 c 3.35 1 6.62 -0.74 8.47 -3.45 c 11.27 -16.48 31.82 -25.42 51.57 -21.55 a 51.65 51.65 0 0 1 39.17 34.63 a 6.36 6.36 0 0 0 5.29 5.41 C 382.38 309.12 394.14 321.59 394.67 337.33 Z" stroke-linecap="round" />
</g>
<g transform="matrix(0.4 0 0 0.4 256.6 222.71)" id="图层_1"  >
<path style="stroke: none; stroke-width: 1; stroke-dasharray: none; stroke-linecap: butt; stroke-dashoffset: 0; stroke-linejoin: miter; stroke-miterlimit: 4; fill: rgb(35,24,21); fill-rule: nonzero; opacity: 1;"  transform=" translate(-391.51, -306.78)" d="M 387.18 297.95 a 49.45 49.45 0 0 1 11.75 10.59 a 66.46 66.46 0 0 1 -3.9 7.07 a 41.06 41.06 0 0 0 -10.94 -10.85 A 52.82 52.82 0 0 0 387.18 297.95 Z" stroke-linecap="round" />
</g>
<g transform="matrix(0.4 0 0 0.4 200.05 200)" id="图层_1"  >
<path style="stroke: none; stroke-width: 1; stroke-dasharray: none; stroke-linecap: butt; stroke-dashoffset: 0; stroke-linejoin: miter; stroke-miterlimit: 4; fill: rgb(255,255,255); fill-rule: nonzero; opacity: 1;"  transform=" translate(-250.13, -249.99)" d="M 348 227.82 c 22.46 4.83 40.56 23.46 42.46 46.81 a 54 54 0 0 1 -3.24 23.32 a 48.15 48.15 0 0 0 -12.11 -5.63 c -8.35 -21 -26.91 -37.41 -49.56 -41.28 a 66.9 66.9 0 0 0 -63.59 24 a 57.63 57.63 0 0 0 -50.56 13.47 A 56.91 56.91 0 0 0 193 332.3 c -6.23 0 -12.45 0.06 -18.67 0 a 64.91 64.91 0 0 1 -1.41 -129.8 a 68.21 68.21 0 0 1 21.73 3.24 c 3.33 1 6.63 -0.74 8.47 -3.45 c 17.29 -25.5 48.92 -39.18 79.35 -33.28 a 79.19 79.19 0 0 1 60.23 53.36 A 6.32 6.32 0 0 0 348 227.82 Z" stroke-linecap="round" />
</g>
<g transform="matrix(0.4 0 0 0.4 252.45 219.42)" id="图层_1"  >
<path style="stroke: none; stroke-width: 1; stroke-dasharray: none; stroke-linecap: butt; stroke-dashoffset: 0; stroke-linejoin: miter; stroke-miterlimit: 4; fill: rgb(35,24,21); fill-rule: nonzero; opacity: 1;"  transform=" translate(-381.13, -298.54)" d="M 387.18 297.95 a 52.82 52.82 0 0 1 -3.09 6.81 a 41.54 41.54 0 0 0 -7.35 -3.95 a 7 7 0 0 0 -0.14 -4.23 q -0.69 -2.16 -1.53 -4.26 A 48.15 48.15 0 0 1 387.18 297.95 Z" stroke-linecap="round" />
</g>
<g transform="matrix(0.4 0 0 0.4 248.75 218.39)" id="图层_1"  >
<path style="stroke: none; stroke-width: 1; stroke-dasharray: none; stroke-linecap: butt; stroke-dashoffset: 0; stroke-linejoin: miter; stroke-miterlimit: 4; fill: rgb(35,24,21); fill-rule: nonzero; opacity: 1;"  transform=" translate(-371.88, -295.97)" d="M 376.6 296.58 a 7 7 0 0 1 0.14 4.23 a 39.79 39.79 0 0 0 -7.37 -2.24 a 57.91 57.91 0 0 0 -2.62 -6.87 a 7.51 7.51 0 0 1 4.61 -0.36 c 1.26 0.28 2.49 0.6 3.71 1 Q 375.91 294.42 376.6 296.58 Z" stroke-linecap="round" />
</g>
<g transform="matrix(0.4 0 0 0.4 247.75 219.49)" id="图层_1"  >
<path style="stroke: none; stroke-width: 1; stroke-dasharray: none; stroke-linecap: butt; stroke-dashoffset: 0; stroke-linejoin: miter; stroke-miterlimit: 4; fill: rgb(35,24,21); fill-rule: nonzero; opacity: 1;"  transform=" translate(-369.37, -298.74)" d="M 369.37 298.57 a 39.79 39.79 0 0 1 7.37 2.24 c -1.79 5.95 -12.15 7.34 -14.6 -0.24 l -0.06 -0.18 a 8.31 8.31 0 0 1 4.67 -8.69 A 57.91 57.91 0 0 1 369.37 298.57 Z" stroke-linecap="round" />
</g>
<g transform="matrix(0.4 0 0 0.4 221.01 228.95)" id="图层_1"  >
<path style="stroke: none; stroke-width: 1; stroke-dasharray: none; stroke-linecap: butt; stroke-dashoffset: 0; stroke-linejoin: miter; stroke-miterlimit: 4; fill: rgb(35,24,21); fill-rule: nonzero; opacity: 1;"  transform=" translate(-302.53, -322.37)" d="M 362.14 300.57 c 2.45 7.58 12.81 6.19 14.6 0.24 a 41.54 41.54 0 0 1 7.35 3.95 A 41.06 41.06 0 0 1 395 315.61 a 66.46 66.46 0 0 0 3.9 -7.07 a 48.66 48.66 0 0 1 10.74 28.79 c 0.69 20.88 -12.64 39.87 -32.06 47.09 c -8 3 -16.31 2.89 -24.7 2.89 H 254.45 c -10.75 0 -21 -1.36 -30.78 -6.29 a 57 57 0 0 1 -28.28 -33.72 h 7.88 a 49 49 0 0 1 -2.9 -15 c 0 -0.61 0 -1.22 0 -1.83 a 49.34 49.34 0 0 1 49.34 -49.34 a 50.14 50.14 0 0 1 15.21 2.4 a 58.44 58.44 0 0 1 101.88 8.17 a 8.31 8.31 0 0 0 -4.67 8.69 a 51.65 51.65 0 0 0 -39.17 -34.63 c -19.75 -3.87 -40.3 5.07 -51.57 21.55 c -1.85 2.71 -5.12 4.47 -8.47 3.45 c -17.43 -5.32 -36.93 0.31 -47.46 15.64 a 41.85 41.85 0 0 0 34.3 65.91 c 4.6 0.05 9.2 0 13.79 0 H 354 c 6.28 0 12.35 0.2 18.41 -1.91 c 13.86 -4.83 22.77 -18.55 22.28 -33.07 c -0.53 -15.74 -12.29 -28.21 -27.3 -31.53 a 6.36 6.36 0 0 1 -5.29 -5.41 Z" stroke-linecap="round" />
</g>
<g transform="matrix(0.4 0 0 0.4 240.03 188.2)" id="图层_1"  >
<path style="stroke: none; stroke-width: 1; stroke-dasharray: none; stroke-linecap: butt; stroke-dashoffset: 0; stroke-linejoin: miter; stroke-miterlimit: 4; fill: rgb(35,24,21); fill-rule: nonzero; opacity: 1;"  transform=" translate(-350.07, -220.5)" d="M 357.18 218.6 c 2.94 9.23 -11.54 13.15 -14.46 4 c 0 -0.07 -0.05 -0.14 -0.07 -0.21 c -0.66 -4.68 3.17 -10.33 9.3 -9 c 1.25 0.27 2.5 0.58 3.74 0.92 C 356.22 215.71 356.72 217.14 357.18 218.6 Z" stroke-linecap="round" />
</g>
<g transform="matrix(0.4 0 0 0.4 249.67 204.55)" id="图层_1"  >
<path style="stroke: none; stroke-width: 1; stroke-dasharray: none; stroke-linecap: butt; stroke-dashoffset: 0; stroke-linejoin: miter; stroke-miterlimit: 4; fill: rgb(35,24,21); fill-rule: nonzero; opacity: 1;"  transform=" translate(-374.19, -261.38)" d="M 348 227.82 a 6.32 6.32 0 0 1 -5.31 -5.45 c 0 0.07 0.05 0.14 0.07 0.21 c 2.92 9.17 17.4 5.25 14.46 -4 c -0.46 -1.46 -1 -2.89 -1.49 -4.32 a 69.37 69.37 0 0 1 14.56 5.81 c 23.64 12.76 38 39.69 35 66.43 a 68.2 68.2 0 0 1 -6.31 22 a 49.45 49.45 0 0 0 -11.75 -10.59 a 54 54 0 0 0 3.24 -23.32 C 388.52 251.28 370.42 232.65 348 227.82 Z" stroke-linecap="round" />
</g>
<g transform="matrix(0.4 0 0 0.4 226.62 208.46)" id="图层_1"  >
<path style="stroke: none; stroke-width: 1; stroke-dasharray: none; stroke-linecap: butt; stroke-dashoffset: 0; stroke-linejoin: miter; stroke-miterlimit: 4; fill: rgb(35,24,21); fill-rule: nonzero; opacity: 1;"  transform=" translate(-316.54, -271.16)" d="M 266.86 276.29 c -1.64 -0.5 -3.29 -0.92 -4.94 -1.28 a 66.9 66.9 0 0 1 63.59 -24 c 22.65 3.87 41.21 20.28 49.56 41.28 c -1.22 -0.38 -2.45 -0.7 -3.71 -1 a 7.51 7.51 0 0 0 -4.61 0.36 a 58.44 58.44 0 0 0 -101.88 -8.17 a 47.38 47.38 0 0 0 -6.86 -1.68 l 0.38 -2.11 Z" stroke-linecap="round" />
</g>
<g transform="matrix(0.4 0 0 0.4 205.05 210.95)" id="图层_1"  >
<path style="stroke: none; stroke-width: 1; stroke-dasharray: none; stroke-linecap: butt; stroke-dashoffset: 0; stroke-linejoin: miter; stroke-miterlimit: 4; fill: rgb(35,24,21); fill-rule: nonzero; opacity: 1;"  transform=" translate(-262.63, -277.38)" d="M 266.86 276.29 l -8.47 3.45 q 1.68 -2.46 3.53 -4.73 C 263.57 275.37 265.22 275.79 266.86 276.29 Z" stroke-linecap="round" />
</g>
<g transform="matrix(0.4 0 0 0.4 179.24 235.92)" id="图层_1"  >
<path style="stroke: none; stroke-width: 1; stroke-dasharray: none; stroke-linecap: butt; stroke-dashoffset: 0; stroke-linejoin: miter; stroke-miterlimit: 4; fill: rgb(35,24,21); fill-rule: nonzero; opacity: 1;"  transform=" translate(-198.11, -339.8)" d="M 203.27 347.3 h -7.88 a 52.52 52.52 0 0 1 -1.82 -7.92 a 58.16 58.16 0 0 1 -0.62 -7.08 h 7.42 A 49 49 0 0 0 203.27 347.3 Z" stroke-linecap="round" />
</g>
<g transform="matrix(0.4 0 0 0.4 177.74 176.92)" id="图层_1"  >
<path style="stroke: none; stroke-width: 1; stroke-dasharray: none; stroke-linecap: butt; stroke-dashoffset: 0; stroke-linejoin: miter; stroke-miterlimit: 4; fill: rgb(35,24,21); fill-rule: nonzero; opacity: 1;"  transform=" translate(-194.36, -192.31)" d="M 198.59 191.28 l -8.47 3.44 q 1.67 -2.46 3.47 -4.82 C 195.27 190.3 196.93 190.76 198.59 191.28 Z" stroke-linecap="round" />
</g>
<g transform="matrix(0.4 0 0 0.4 190.04 199.99)" id="图层_1"  >
<path style="stroke: none; stroke-width: 1; stroke-dasharray: none; stroke-linecap: butt; stroke-dashoffset: 0; stroke-linejoin: miter; stroke-miterlimit: 4; fill: rgb(35,24,21); fill-rule: nonzero; opacity: 1;"  transform=" translate(-225.11, -249.98)" d="M 342.65 222.37 A 79.19 79.19 0 0 0 282.42 169 c -30.43 -5.9 -62.06 7.78 -79.35 33.28 c -1.84 2.71 -5.14 4.49 -8.47 3.45 a 68.21 68.21 0 0 0 -21.73 -3.24 a 64.91 64.91 0 0 0 1.41 129.8 c 6.22 0.06 12.44 0 18.67 0 a 58.16 58.16 0 0 0 0.62 7.08 a 52.52 52.52 0 0 0 1.82 7.92 h -13.3 c -14.32 0 -28 -1.36 -41.3 -7.38 c -23.68 -10.72 -41.31 -33.75 -45.31 -59.46 c -4.11 -26.39 4.81 -53.69 24.66 -71.83 a 80.83 80.83 0 0 1 73.45 -18.73 q -1.8 2.36 -3.47 4.82 l 8.47 -3.44 c -1.66 -0.52 -3.32 -1 -5 -1.38 a 93 93 0 0 1 113.13 -28.76 c 22.84 10.2 40.34 29.88 49 53.14 c -1.24 -0.34 -2.49 -0.65 -3.74 -0.92 C 345.82 212 342 217.69 342.65 222.37 Z" stroke-linecap="round" />
</g>
<g transform="matrix(0.4 0 0 0.4 190.98 221.21)" id="图层_1"  >
<path style="stroke: none; stroke-width: 1; stroke-dasharray: none; stroke-linecap: butt; stroke-dashoffset: 0; stroke-linejoin: miter; stroke-miterlimit: 4; fill: rgb(35,24,21); fill-rule: nonzero; opacity: 1;"  transform=" translate(-227.44, -303.02)" d="M 193 332.3 a 56.91 56.91 0 0 1 18.41 -43.82 A 57.63 57.63 0 0 1 261.92 275 q -1.84 2.26 -3.53 4.73 l -0.38 2.11 a 47.85 47.85 0 0 0 -8.35 -0.72 a 49.34 49.34 0 0 0 -49.34 49.34 c 0 0.61 0 1.22 0 1.83 H 193 Z" stroke-linecap="round" />
</g>
<g transform="matrix(0.4 0 0 0.4 157.98 206.98)" id="图层_1"  >
<path style="stroke: rgb(35,24,21); stroke-width: 1; stroke-dasharray: none; stroke-linecap: butt; stroke-dashoffset: 0; stroke-linejoin: miter; stroke-miterlimit: 10; fill: none; fill-rule: nonzero; opacity: 1;"  transform=" translate(-144.94, -267.46)" d="M 193.59 189.9 a 80.83 80.83 0 0 0 -73.45 18.73 c -19.85 18.14 -28.77 45.44 -24.66 71.83 c 4 25.71 21.63 48.74 45.31 59.46 c 13.28 6 27 7.38 41.3 7.38 h 13.3" stroke-linecap="round" />
</g>
<g transform="matrix(0.4 0 0 0.4 177.74 176.92)" id="图层_1"  >
<path style="stroke: rgb(35,24,21); stroke-width: 1; stroke-dasharray: none; stroke-linecap: butt; stroke-dashoffset: 0; stroke-linejoin: miter; stroke-miterlimit: 10; fill: none; fill-rule: nonzero; opacity: 1;"  transform=" translate(-194.36, -192.31)" d="M 193.59 189.9 c 1.68 0.4 3.34 0.86 5 1.38 l -8.47 3.44 Q 191.79 192.26 193.59 189.9 Z" stroke-linecap="round" />
</g>
<g transform="matrix(0.4 0 0 0.4 209.86 173.4)" id="图层_1"  >
<path style="stroke: rgb(35,24,21); stroke-width: 1; stroke-dasharray: none; stroke-linecap: butt; stroke-dashoffset: 0; stroke-linejoin: miter; stroke-miterlimit: 10; fill: none; fill-rule: nonzero; opacity: 1;"  transform=" translate(-274.64, -183.49)" d="M 355.69 214.28 c -8.63 -23.26 -26.13 -42.94 -49 -53.14 A 93 93 0 0 0 193.59 189.9" stroke-linecap="round" />
</g>
<g transform="matrix(0.4 0 0 0.4 190.46 200)" id="图层_1"  >
<path style="stroke: rgb(35,24,21); stroke-width: 1; stroke-dasharray: none; stroke-linecap: butt; stroke-dashoffset: 0; stroke-linejoin: miter; stroke-miterlimit: 10; fill: none; fill-rule: nonzero; opacity: 1;"  transform=" translate(-226.15, -249.99)" d="M 193 332.3 c -6.23 0 -12.45 0.06 -18.67 0 a 64.91 64.91 0 0 1 -1.41 -129.8 a 68.21 68.21 0 0 1 21.73 3.24 c 3.33 1 6.63 -0.74 8.47 -3.45 c 17.29 -25.5 48.92 -39.18 79.35 -33.28 a 79.19 79.19 0 0 1 60.23 53.36" stroke-linecap="round" />
</g>
<g transform="matrix(0.4 0 0 0.4 246.65 204.06)" id="图层_1"  >
<path style="stroke: rgb(35,24,21); stroke-width: 1; stroke-dasharray: none; stroke-linecap: butt; stroke-dashoffset: 0; stroke-linejoin: miter; stroke-miterlimit: 10; fill: none; fill-rule: nonzero; opacity: 1;"  transform=" translate(-366.63, -260.16)" d="M 342.65 222.37 a 6.32 6.32 0 0 0 5.31 5.45 c 22.46 4.83 40.56 23.46 42.46 46.81 a 54 54 0 0 1 -3.24 23.32" stroke-linecap="round" />
</g>
<g transform="matrix(0.4 0 0 0.4 252.26 204.57)" id="图层_1"  >
<path style="stroke: rgb(35,24,21); stroke-width: 1; stroke-dasharray: none; stroke-linecap: butt; stroke-dashoffset: 0; stroke-linejoin: miter; stroke-miterlimit: 10; fill: none; fill-rule: nonzero; opacity: 1;"  transform=" translate(-380.66, -261.42)" d="M 398.93 308.54 a 68.2 68.2 0 0 0 6.31 -22 c 3 -26.74 -11.35 -53.67 -35 -66.43 a 69.37 69.37 0 0 0 -14.56 -5.81" stroke-linecap="round" />
</g>
<g transform="matrix(0.4 0 0 0.4 240.03 188.19)" id="图层_1"  >
<path style="stroke: rgb(35,24,21); stroke-width: 1; stroke-dasharray: none; stroke-linecap: butt; stroke-dashoffset: 0; stroke-linejoin: miter; stroke-miterlimit: 10; fill: none; fill-rule: nonzero; opacity: 1;"  transform=" translate(-350.07, -220.47)" d="M 342.65 222.37 c 0 0.07 0.05 0.14 0.07 0.21 c 2.92 9.17 17.4 5.25 14.46 -4 c -0.46 -1.46 -1 -2.89 -1.49 -4.32 c -1.24 -0.34 -2.49 -0.65 -3.74 -0.92 C 345.82 212 342 217.69 342.65 222.37 Z" stroke-linecap="round" />
</g>
<g transform="matrix(0.4 0 0 0.4 220.53 227.47)" id="图层_1"  >
<path style="stroke: rgb(35,24,21); stroke-width: 1; stroke-dasharray: none; stroke-linecap: butt; stroke-dashoffset: 0; stroke-linejoin: miter; stroke-miterlimit: 10; fill: none; fill-rule: nonzero; opacity: 1;"  transform=" translate(-301.33, -318.67)" d="M 362.08 300.39 l 0.06 0.18 c 2.45 7.58 12.81 6.19 14.6 0.24 a 7 7 0 0 0 -0.14 -4.23 q -0.69 -2.16 -1.53 -4.26 c -8.35 -21 -26.91 -37.41 -49.56 -41.28 a 66.9 66.9 0 0 0 -63.59 24 q -1.84 2.26 -3.53 4.73 l 8.47 -3.45 c -1.64 -0.5 -3.29 -0.92 -4.94 -1.28 a 57.63 57.63 0 0 0 -50.56 13.47 A 56.91 56.91 0 0 0 193 332.3 a 58.16 58.16 0 0 0 0.62 7.08 a 52.52 52.52 0 0 0 1.82 7.92 A 57 57 0 0 0 223.67 381 c 9.77 4.93 20 6.29 30.78 6.29 h 98.46 c 8.39 0 16.67 0.1 24.7 -2.89 c 19.42 -7.22 32.75 -26.21 32.06 -47.09 a 48.66 48.66 0 0 0 -10.74 -28.79 a 49.45 49.45 0 0 0 -11.75 -10.59 a 48.15 48.15 0 0 0 -12.11 -5.63 c -1.22 -0.38 -2.45 -0.7 -3.71 -1 a 7.51 7.51 0 0 0 -4.61 0.36 a 8.31 8.31 0 0 0 -4.67 8.69" stroke-linecap="round" />
</g>
<g transform="matrix(0.4 0 0 0.4 220.5 227.44)" id="图层_1"  >
<path style="stroke: rgb(35,24,21); stroke-width: 1; stroke-dasharray: none; stroke-linecap: butt; stroke-dashoffset: 0; stroke-linejoin: miter; stroke-miterlimit: 10; fill: none; fill-rule: nonzero; opacity: 1;"  transform=" translate(-301.25, -318.6)" d="M 362.08 300.39 a 6.36 6.36 0 0 0 5.29 5.41 c 15 3.32 26.77 15.79 27.3 31.53 c 0.49 14.52 -8.42 28.24 -22.28 33.07 c -6.06 2.11 -12.13 1.91 -18.41 1.91 H 263.5 c -4.59 0 -9.19 0.05 -13.79 0 a 41.85 41.85 0 0 1 -34.3 -65.91 c 10.53 -15.33 30 -21 47.46 -15.64 c 3.35 1 6.62 -0.74 8.47 -3.45 c 11.27 -16.48 31.82 -25.42 51.57 -21.55 A 51.65 51.65 0 0 1 362.08 300.39 Z" stroke-linecap="round" />
</g>
</svg>